<svg version="1.1" xmlns="http://www.w3.org/2000/svg" xmlns:xlink="http://www.w3.org/1999/xlink" x="0px" y="0px" viewBox="0 0 1000 1000" enable-background="new 0 0 1000 1000" xml:space="preserve">
<metadata> Svg Vector Icons : http://www.onlinewebfonts.com/icon </metadata>
<g><g transform="translate(0.000000,511.000000) scale(0.100000,-0.100000)"><path d="M4702.2,4785.6c-30.9-3.9-135.1-17.4-231.6-28.9c-351.2-42.5-864.5-202.6-1206-374.4c-322.3-160.2-698.5-426.5-970.6-685c-218.1-206.5-264.4-283.7-281.7-478.5c-13.5-140.9-19.3-156.3-123.5-299.1C1458.5,2325.3,1171,1588.2,1070.6,824l-32.8-252.8h-54c-127.4,0-256.6-98.4-316.5-241.2c-17.4-42.5-36.7-148.6-42.4-235.4c-9.6-158.2-9.6-160.2-61.8-160.2c-92.6,0-250.9-57.9-316.5-117.7c-36.7-30.9-84.9-94.6-106.1-140.9C101.9-399.4,100-439.9,100-891.5c0-524.9,3.9-555.7,106.1-675.4c69.5-83,175.6-135.1,304.9-150.5l104.2-11.6l9.6-158.2c11.6-173.7,50.2-283.7,127.3-366.6c94.6-98.4,140.9-108.1,577-108.1c382.1,0,405.2,1.9,472.8,44.4c92.6,56,148.6,129.3,181.4,239.3c34.7,113.9,40.5,2226.8,5.8,2348.4c-34.7,125.4-110,220-212.3,268.2c-108.1,48.2-106.1,36.7-65.6,314.5c84.9,567.3,316.5,1150.1,648.4,1640.2l133.1,194.9l92.6,9.6c137,13.5,214.2,59.8,432.3,258.6c445.7,409.1,978.3,679.2,1524.4,769.9c221.9,36.7,654.2,40.5,864.5,9.6c577-86.8,1123.1-355,1572.7-773.8c204.5-189.1,339.6-268.2,459.3-268.2c65.6,0,79.1-9.6,160.2-119.6c366.6-497.8,646.4-1233,712.1-1867.9l13.5-125.4l-69.5-25.1c-38.6-15.4-100.3-57.9-137-94.6c-123.5-127.4-125.4-138.9-125.4-1356.6c0-1213.7,1.9-1231.1,123.5-1358.5l63.7-69.5l-84.9-150.5c-314.5-555.7-885.7-1072.9-1399-1265.9l-123.5-46.3l-67.5,88.8c-44.4,59.8-104.2,108.1-179.5,148.6l-115.8,57.9h-530.7h-532.6l-110-54c-403.3-198.8-409.1-762.2-7.7-974.5l98.4-52.1h550h550l98.4,52.1c117.7,61.7,231.6,187.2,260.5,285.6c19.3,65.6,30.9,73.3,160.2,113.8c654.1,208.4,1379.7,872.2,1759.8,1609.3l75.3,148.6h247c270.1,0,335.8,17.4,422.6,108.1c77.2,83,111.9,185.2,125.4,364.7l11.6,160.2l104.2,11.6c57.9,5.8,138.9,28.9,179.5,50.2c88.8,46.3,187.2,160.2,214.2,250.9c11.6,42.5,17.4,258.6,13.5,561.5l-5.8,494l-54,81.1c-75.3,111.9-204.6,191-341.6,206.5l-110,11.6l-11.6,160.2c-5.8,88.8-25.1,193-42.5,233.5c-59.8,142.8-187.2,239.3-318.4,239.3c-36.7,0-57.9,9.6-57.9,27c0,115.8-75.3,555.8-135.1,793.1C8675.4,1976,8445.8,2477.7,8110,2944.7c-96.5,137-117.7,177.5-117.7,243.1c0,42.5-13.5,125.4-30.9,183.3c-27,88.8-56,129.3-218.1,289.4c-573.1,569.2-1331.5,955.2-2143.8,1088.3C5423.9,4777.9,4823.8,4803,4702.2,4785.6z"/></g></g>
</svg>