<svg version="1.1" xmlns="http://www.w3.org/2000/svg" xmlns:xlink="http://www.w3.org/1999/xlink" x="0px" y="0px" viewBox="0 0 1000 1000" enable-background="new 0 0 1000 1000" xml:space="preserve">
<metadata> Svg Vector Icons : http://www.onlinewebfonts.com/icon </metadata>
<g><g transform="translate(0.000000,511.000000) scale(0.100000,-0.100000)"><path d="M4329,1930.2l-4087.8-14.7l-70.6-82.4l-70.6-82.4v-1648v-1651l85.3-85.4l85.3-85.3h4714.6c3175.4,0,4732.2,8.8,4770.5,29.4c144.2,79.5,144.2,94.2,144.2,1792.3c0,938.8-11.8,1618.6-29.4,1662.8c-55.9,150.1-111.8,161.9-809.3,170.7C8705.2,1941.9,6574.5,1939,4329,1930.2z M9605.7,105.5v-1530.3H5000H394.3V105.5v1530.3H5000h4605.7V105.5z"/><path d="M835.7,900.1V664.7h250.1H1336v235.4v235.4h-250.2H835.7V900.1z"/><path d="M1827.5,1115c-11.8-8.8-20.6-114.8-20.6-235.4V664.7h250.1h250.2v235.4v235.4h-229.5C1951.1,1135.6,1836.3,1126.7,1827.5,1115z"/><path d="M2789.8,1097.3c-8.8-23.5-11.8-126.6-5.9-229.6l8.8-188.3h250.2h250.1v220.7v220.7l-244.3,8.8C2863.4,1135.6,2801.6,1129.7,2789.8,1097.3z"/><path d="M3778.7,900.1V664.7h250.2h253.1l-8.8,229.5l-8.8,226.6l-241.3,8.8l-244.3,8.8V900.1z"/><path d="M4749.8,900.1V664.7H5000h250.2v235.4v235.4H5000h-250.2V900.1z"/><path d="M5721,900.1V664.7h250.2h250.2v235.4v235.4h-250.2H5721V900.1z"/><path d="M6692.2,900.1V664.7h250.2h250.1v235.4v235.4h-250.1h-250.2V900.1z"/><path d="M7663.4,900.1V664.7h250.2h250.1v235.4v235.4h-250.1h-250.2V900.1z"/><path d="M8634.5,900.1V664.7h250.2h250.1v235.4v235.4h-250.1h-250.2V900.1z"/><path d="M835.7,105.5v-235.4h250.1H1336v235.4V341h-250.2H835.7V105.5z"/><path d="M1812.8,114.4l8.8-229.5l244.3-8.8l241.3-8.9v238.4V341h-250.2H1804L1812.8,114.4z"/><path d="M2789.8,302.7c-8.8-23.5-11.8-126.6-5.9-229.6l8.8-188.3h250.2h250.1v220.7v220.7l-244.3,8.8C2863.4,341,2801.6,335.1,2789.8,302.7z"/><path d="M3778.7,105.5v-238.4l244.3,8.9l241.3,8.8l8.8,229.5l8.8,226.6h-253.1h-250.2V105.5z"/><path d="M4749.8,105.5v-235.4H5000h250.2v235.4V341H5000h-250.2V105.5z"/><path d="M5721,105.5v-235.4h250.2h250.2v235.4V341h-250.2H5721V105.5z"/><path d="M6692.2,105.5v-235.4h250.2h250.1v235.4V341h-250.1h-250.2V105.5z"/><path d="M7663.4,105.5v-235.4h250.2h250.1v235.4V341h-250.1h-250.2V105.5z"/><path d="M8634.5,105.5v-235.4h250.2h250.1v235.4V341h-250.1h-250.2V105.5z"/><path d="M1812.8-680.2l8.8-229.5l244.3-8.8l241.3-8.8v238.4v235.4h-250.2H1804L1812.8-680.2z"/><path d="M2789.8-494.8c-8.8-20.6-11.8-123.6-5.9-226.6l8.8-188.3l2201.3-8.8l2198.4-5.9v235.4v235.4H5000C3181.3-453.6,2801.6-459.5,2789.8-494.8z"/><path d="M7663.4-689.1v-235.4h250.2h250.1v235.4v235.4h-250.1h-250.2V-689.1z"/></g></g>
</svg>